<?xml version="1.0" encoding="UTF-8"?>
<svg id="a" data-name="BG" xmlns="http://www.w3.org/2000/svg" viewBox="0 0 377.95 96.88">
  <defs>
    <style>
      .c {
        fill: #ffd53e;
        stroke: #fff;
        stroke-miterlimit: 10;
      }

      .d {
        fill: #20375a;
        isolation: isolate;
        opacity: .4;
      }

      .d, .e, .f {
        stroke-width: 0px;
      }

      .e {
        fill: #1a3253;
      }

      .f {
        fill: #1d1d1b;
      }
    </style>
  </defs>
  <rect class="c" x=".5" y=".5" width="83.25" height="83.25" rx="6" ry="6"/>
  <path class="d" d="M59.31,29.87c1.17.51,2.46.8,3.82.8s2.65-.29,3.82-.8v19.89c0,8.44-6.84,15.27-15.27,15.27h-1.91v4.77c0,1.13-.67,2.16-1.69,2.61-1.03.45-2.24.27-3.08-.49l-9.55-8.59c-.61-.55-.94-1.31-.94-2.12s.35-1.59.94-2.12l9.55-8.59c.84-.75,2.05-.94,3.08-.49s1.69,1.48,1.69,2.61v4.77h1.91c4.21,0,7.64-3.42,7.64-7.64v-19.89ZM24.94,54.38c-1.17-.51-2.46-.8-3.82-.8s-2.65.29-3.82.8v-19.89c0-8.44,6.84-15.27,15.27-15.27h1.91v-4.77c0-1.13.67-2.16,1.69-2.61s2.24-.27,3.08.49l9.55,8.59c.61.55.94,1.31.94,2.12s-.35,1.59-.94,2.12l-9.55,8.59c-.84.75-2.05.94-3.08.49s-1.69-1.48-1.69-2.61v-4.77h-1.91c-4.21,0-7.64,3.42-7.64,7.64v19.89Z"/>
  <path class="e" d="M60.26,21.12c0-1.58,1.28-2.86,2.86-2.86s2.86,1.28,2.86,2.86-1.28,2.86-2.86,2.86-2.86-1.28-2.86-2.86ZM72.67,21.12c0-5.27-4.27-9.55-9.55-9.55s-9.55,4.27-9.55,9.55,4.27,9.55,9.55,9.55,9.55-4.27,9.55-9.55ZM23.99,63.12c0,1.58-1.28,2.86-2.86,2.86s-2.86-1.28-2.86-2.86,1.28-2.86,2.86-2.86,2.86,1.28,2.86,2.86ZM11.58,63.12c0,5.27,4.27,9.55,9.55,9.55s9.55-4.27,9.55-9.55-4.27-9.55-9.55-9.55-9.55,4.27-9.55,9.55Z"/>
  <g>
    <path class="f" d="M101.8,73.77V12.79h12.13v21.79h5.75V12.79h12.13v60.98h-12.13v-27.65h-5.75v27.65h-12.13Z"/>
    <path class="f" d="M151.56,74.33c-3.7,0-6.64-.69-8.84-2.08-2.19-1.39-3.77-3.38-4.71-5.99-.95-2.61-1.42-5.75-1.42-9.42v-20.89c0-4.83,1.39-8.48,4.16-10.97,2.77-2.48,6.58-3.73,11.43-3.73,9.98,0,14.97,4.9,14.97,14.69v3.78c0,4.57-.05,7.65-.14,9.22h-18.02v10.05c0,.92.06,1.83.17,2.72.12.89.38,1.62.78,2.2.4.58,1.06.87,1.96.87,1.29,0,2.1-.56,2.43-1.68.32-1.12.48-2.58.48-4.38v-4.99h12.33v2.94c0,3.88-.48,7.13-1.44,9.75-.96,2.62-2.58,4.6-4.85,5.92-2.28,1.33-5.38,1.99-9.3,1.99ZM148.92,42.76h5.89v-7c0-1.87-.23-3.22-.69-4.04-.46-.82-1.16-1.23-2.08-1.23-.99,0-1.76.39-2.3,1.18-.54.79-.81,2.15-.81,4.09v7Z"/>
    <path class="f" d="M171.65,73.77V12.79h12.61v60.98h-12.61Z"/>
    <path class="f" d="M189.26,73.77V12.79h12.61v60.98h-12.61Z"/>
    <path class="f" d="M221.96,74.33c-10.35,0-15.52-5.37-15.52-16.11v-20.86c0-4.9,1.37-8.81,4.12-11.73,2.75-2.92,6.55-4.38,11.4-4.38s8.68,1.46,11.43,4.38c2.75,2.92,4.12,6.83,4.12,11.73v20.86c0,10.74-5.19,16.11-15.56,16.11ZM221.96,64.77c1.04,0,1.78-.38,2.24-1.13.45-.75.67-1.7.67-2.86v-25.4c0-3.03-.97-4.54-2.91-4.54s-2.91,1.51-2.91,4.54v25.4c0,1.16.22,2.11.68,2.86.45.75,1.2,1.13,2.23,1.13Z"/>
    <path class="f" d="M242.3,73.77V12.79h16.11c3.37,0,6.05.75,8.02,2.25,1.97,1.5,3.39,3.64,4.24,6.41s1.28,6.08,1.28,9.91-.36,6.91-1.07,9.65c-.72,2.74-1.99,4.86-3.83,6.36-1.84,1.5-4.44,2.25-7.81,2.25h-4.95v24.15h-11.99ZM254.29,38.68h.69c2.26,0,3.65-.64,4.16-1.91.51-1.27.76-3.14.76-5.61,0-2.31-.25-4.09-.75-5.35-.5-1.26-1.67-1.89-3.52-1.89h-1.35v14.76Z"/>
    <path class="f" d="M285.06,74.33c-2.89,0-5.09-.67-6.6-2.01-1.51-1.34-2.55-3.18-3.1-5.51-.55-2.33-.83-4.98-.83-7.93,0-3.16.31-5.76.94-7.78.62-2.02,1.69-3.68,3.21-4.97,1.51-1.29,3.6-2.39,6.25-3.29l7.69-2.63v-5.34c0-2.79-.91-4.19-2.74-4.19-1.66,0-2.5,1.13-2.5,3.4v3.12h-12.06c-.02-.18-.04-.42-.04-.71v-.99c0-5.17,1.22-8.84,3.66-11,2.44-2.16,6.3-3.24,11.59-3.24,2.77,0,5.25.49,7.45,1.47,2.19.98,3.93,2.43,5.21,4.35,1.28,1.92,1.92,4.29,1.92,7.1v39.6h-12.33v-6.17c-.6,2.17-1.59,3.83-2.98,4.99-1.39,1.16-2.97,1.73-4.75,1.73ZM289.94,64.7c1.02,0,1.71-.43,2.08-1.28s.55-1.78.55-2.77v-14.48c-1.71.69-3.04,1.57-3.98,2.62-.95,1.05-1.42,2.59-1.42,4.63v6.69c0,3.07.92,4.61,2.77,4.61Z"/>
    <path class="f" d="M325.53,74.33c-5.82,0-9.95-1.49-12.39-4.47-2.44-2.98-3.66-7.36-3.66-13.13v-16.01c0-4.34.46-7.96,1.39-10.84.92-2.89,2.54-5.05,4.85-6.48,2.31-1.43,5.52-2.15,9.63-2.15,2.86,0,5.43.51,7.71,1.52,2.28,1.02,4.07,2.51,5.39,4.47,1.32,1.96,1.98,4.37,1.98,7.21v7.93h-12.65v-7.28c0-1.2-.17-2.21-.52-3.03s-1.1-1.23-2.25-1.23c-2.03,0-3.05,1.44-3.05,4.33v25.19c0,1.06.23,2.04.69,2.93.46.89,1.22,1.33,2.29,1.33s1.84-.43,2.27-1.3c.43-.87.64-1.88.64-3.03v-8.73h12.58v9.08c0,2.86-.64,5.32-1.92,7.36-1.28,2.04-3.04,3.61-5.28,4.7-2.24,1.08-4.8,1.63-7.69,1.63Z"/>
    <path class="f" d="M344.76,73.77V12.79h12.27v26.92l5.96-17.91h12.85l-7.8,22.59,9.91,29.38h-13.2l-7.73-24.5v24.5h-12.27Z"/>
  </g>
</svg>